HIERARCHY
ROOT Hips
{
	OFFSET -3.958830 18.904000 13.208200
	CHANNELS 6 Xposition Yposition Zposition Zrotation Yrotation Xrotation 
	JOINT LHipJoint
	{
		OFFSET 0.000000 0.000000 0.000000
		CHANNELS 3 Zrotation Yrotation Xrotation
		JOINT LeftUpLeg
		{
			OFFSET 1.800000 -1.400000 0.085000
			CHANNELS 3 Zrotation Yrotation Xrotation
			JOINT LeftLeg
			{
				OFFSET 2.215000 -6.000000 0.000000
				CHANNELS 3 Zrotation Yrotation Xrotation
				JOINT LeftFoot
				{
					OFFSET 2.500000 -6.900000 0.000000
					CHANNELS 3 Zrotation Yrotation Xrotation
					JOINT LeftToeBase
					{
						OFFSET 0.200000 -0.500000 1.950000
						CHANNELS 3 Zrotation Yrotation Xrotation
						End Site
						{
							OFFSET 0.000000 0.000000 0.000000
						}
					}
				}
			}
		}
	}
	JOINT RHipJoint
	{
		OFFSET 0.000000 0.000000 0.000000
		CHANNELS 3 Zrotation Yrotation Xrotation
		JOINT RightUpLeg
		{
			OFFSET -1.800000 -1.400000 0.085000
			CHANNELS 3 Zrotation Yrotation Xrotation
			JOINT RightLeg
			{
				OFFSET -2.215000 -6.000000 0.000000
				CHANNELS 3 Zrotation Yrotation Xrotation
				JOINT RightFoot
				{
					OFFSET -2.500000 -6.900000 0.000000
					CHANNELS 3 Zrotation Yrotation Xrotation
					JOINT RightToeBase
					{
						OFFSET -0.200000 -0.500000 1.950000
						CHANNELS 3 Zrotation Yrotation Xrotation
						End Site
						{
							OFFSET 0.000000 0.000000 0.000000
						}
					}
				}
			}
		}
	}
	JOINT LowerBack
	{
		OFFSET 0.000000 0.000000 0.000000
		CHANNELS 3 Zrotation Yrotation Xrotation
		JOINT Spine
		{
			OFFSET -0.087000 1.940000 -0.288900
			CHANNELS 3 Zrotation Yrotation Xrotation
			JOINT Spine1
			{
				OFFSET 0.000000 1.950000 0.060000
				CHANNELS 3 Zrotation Yrotation Xrotation
				JOINT Neck
				{
					OFFSET 0.000000 0.000000 0.000000
					CHANNELS 3 Zrotation Yrotation Xrotation
					JOINT Neck1
					{
						OFFSET 0.000000 1.600000 0.340000
						CHANNELS 3 Zrotation Yrotation Xrotation
						JOINT Head
						{
							OFFSET 0.000000 1.667000 -0.240000
							CHANNELS 3 Zrotation Yrotation Xrotation
							End Site
							{
								OFFSET 0.000000 0.000000 0.000000
							}
						}
					}
				}
				JOINT LeftShoulder
				{
					OFFSET 0.000000 0.000000 0.000000
					CHANNELS 3 Zrotation Yrotation Xrotation
					JOINT LeftArm
					{
						OFFSET 2.700000 1.550000 -0.730000
						CHANNELS 3 Zrotation Yrotation Xrotation
						JOINT LeftForeArm
						{
							OFFSET 5.450000 0.000000 0.000000
							CHANNELS 3 Zrotation Yrotation Xrotation
							JOINT LeftHand
							{
								OFFSET 3.450000 0.000000 0.000000
								CHANNELS 3 Zrotation Yrotation Xrotation
								JOINT LeftHandIndex1
								{
									OFFSET 0.750000 0.000000 0.000000
									CHANNELS 3 Zrotation Yrotation Xrotation
									End Site
									{
										OFFSET 0.000000 0.000000 0.000000
									}
								}
							}
						}
					}
				}
				JOINT RightShoulder
				{
					OFFSET 0.000000 0.000000 0.000000
					CHANNELS 3 Zrotation Yrotation Xrotation
					JOINT RightArm
					{
						OFFSET -2.700000 1.550000 -0.730000
						CHANNELS 3 Zrotation Yrotation Xrotation
						JOINT RightForeArm
						{
							OFFSET -5.450000 0.000000 0.000000
							CHANNELS 3 Zrotation Yrotation Xrotation
							JOINT RightHand
							{
								OFFSET -3.450000 0.000000 0.000000
								CHANNELS 3 Zrotation Yrotation Xrotation
								JOINT RightHandIndex1
								{
									OFFSET -0.750000 0.000000 0.000000
									CHANNELS 3 Zrotation Yrotation Xrotation
									End Site
									{
										OFFSET 0.000000 0.000000 0.000000
									}
								}
							}
						}
					}
				}
			}
		}
	}
}
MOTION
Frames: 4
Frame Time: 0.016667
-1.182710 16.014130 -3.714010 -1.431702 20.640629 -14.087271 -15.731478 12.304685 5.332997 23.408562 -3.160647 -40.741615 -2.502158 17.126137 59.727278 0.879662 11.649215 0.262517 0.511870 0.543140 0.231430 17.964175 -10.016346 1.557766 -23.712406 3.672313 -14.311323 1.603281 -15.112249 63.136501 -1.549557 -10.168593 0.710791 0.419330 0.003820 0.035840 -2.546863 -3.152686 -8.830268 -5.960898 4.414614 30.941056 -2.889060 7.301275 17.119018 -3.410493 -3.795604 -11.547174 -18.614992 -0.458237 51.335562 8.424930 -7.614980 -12.738570 -7.011448 -37.716422 -2.637507 -23.203182 -56.356724 13.118917 58.220391 -66.987627 -34.321995 -3.377358 1.771959 0.284950 -0.130220 0.156830 0.135940 11.870307 40.642459 13.241837 14.981488 21.138400 -9.343784 9.110324 57.351992 3.809659 1.924327 -1.678437 -0.029440 0.291620 -0.077230 -0.006770 
-1.185670 16.007940 -3.697090 -1.343665 19.918745 -13.941482 -15.736249 12.281376 5.377218 24.109425 -3.262188 -40.410803 -3.167173 17.608452 59.750657 0.897650 11.753541 0.223052 0.527110 0.564430 0.240990 17.971121 -10.017053 1.514457 -23.483494 3.323323 -14.764706 0.786932 -14.770714 63.573974 -1.558766 -10.159452 0.708580 0.430790 -0.003570 0.040960 -2.540490 -3.182675 -8.831377 -6.043568 4.559042 30.390900 -2.315499 7.200851 17.093723 -4.078460 -3.746846 -11.524326 -18.839144 -0.265294 51.489314 8.736660 -7.293070 -13.030440 -6.483082 -37.290405 -3.241955 -23.052765 -56.489332 13.045364 54.250927 -66.240129 -31.332149 -3.387919 1.898995 0.290830 -0.134070 0.168260 0.136870 12.623892 39.858493 14.055639 18.489934 20.338011 -9.331773 9.995611 57.990841 3.770934 1.912847 -1.675453 -0.023780 0.289980 -0.082920 -0.007590 
-1.186960 15.991780 -3.659330 -0.743043 18.560740 -13.328027 -15.750221 12.243064 5.499699 25.134194 -3.836603 -39.776161 -5.176158 18.745710 59.394280 0.940115 11.984160 0.157270 0.514320 0.556120 0.219430 17.975316 -10.049783 1.389979 -23.118649 2.487027 -15.974323 -1.702862 -13.437280 64.294609 -1.522303 -10.049155 0.740992 0.435170 0.023230 0.036460 -2.509698 -3.273492 -8.817699 -6.567555 4.911443 29.254013 -0.822243 7.093211 16.464289 -5.590461 -3.960924 -11.358808 -19.889837 0.045506 51.319415 9.682540 -7.138000 -12.615260 -5.914833 -35.856426 -4.658585 -23.107884 -56.470835 13.064739 43.448186 -66.394409 -24.426532 -3.393134 2.149378 0.288140 -0.121780 0.154380 0.138820 15.070072 37.850075 15.625473 25.003963 17.274429 -8.828792 15.195055 56.744988 5.165130 1.941967 -1.679321 -0.038550 0.302930 -0.070210 -0.001890 
-1.177140 16.000650 -3.622850 -0.487008 15.795094 -13.069421 -15.750147 12.242566 5.555863 26.635616 -4.233607 -38.156343 -7.328070 19.835469 58.569436 0.998358 12.134131 0.112295 0.522240 0.573360 0.220450 17.984872 -10.135332 1.266515 -22.242043 1.585139 -17.526724 -4.818131 -11.468250 64.553659 -1.484890 -9.805628 0.816089 0.433300 0.018500 0.035790 -2.505211 -3.290228 -8.779991 -6.514239 4.871233 28.152631 0.437916 6.969569 15.508153 -6.414727 -4.464304 -11.274325 -21.548279 0.800377 51.629964 10.500310 -6.870560 -12.757700 -6.007386 -32.750077 -5.112097 -24.837439 -55.032081 12.565848 30.149409 -69.184646 -17.238442 -3.302690 2.396644 0.297830 -0.133720 0.171440 0.143670 17.045823 34.715110 16.399107 32.021831 12.466366 -8.970503 19.442013 55.469948 5.980231 1.998026 -1.672471 -0.029010 0.304680 -0.079280 0.005630 
